<?xml version="1.0" encoding="iso-8859-1"?>
<!-- Generator: Adobe Illustrator 19.0.0, SVG Export Plug-In . SVG Version: 6.00 Build 0)  -->
<svg version="1.1" id="Layer_1" xmlns="http://www.w3.org/2000/svg" xmlns:xlink="http://www.w3.org/1999/xlink" x="0px" y="0px"
	 viewBox="-63.6 -63.6 636 636" style="enable-background:new 0 0 512 512; background: rgba(0,0,0,0.1)" xml:space="preserve">
<rect x="122.725" y="196.275" style="fill:#7AB6DE;" width="237.978" height="80.701"/>
<g>
	<path style="fill:#ADD9FF;" d="M136.302,153.624c-14.046,0-25.474,11.428-25.474,25.474v108.943h16.605V179.098
		c0-4.89,3.979-8.868,8.868-8.868h220.437v-16.605H136.302z"/>
	<path style="fill:#ADD9FF;" d="M469.966,13.119c4.583,0,8.303,3.72,8.303,8.303s-3.72,8.303-8.303,8.303h-77.481l25.041-16.605
		C417.526,13.119,469.966,13.119,469.966,13.119z"/>
</g>
<path style="fill:#475B70;" d="M417.526,13.119l-2.9,16.605c-0.011,0-31.539,180.49-31.539,180.49h-54.355l30.277-173.305
	c2.336-13.34,14.768-23.79,28.307-23.79C387.316,13.119,417.526,13.119,417.526,13.119z"/>
<g>
	<path style="fill:#ADD9FF;" d="M8.303,449.233c-4.585,0-8.303,3.717-8.303,8.303s3.717,8.303,8.303,8.303h63.815v-16.605H8.303z"/>
	<rect x="88.684" y="325.432" style="fill:#ADD9FF;" width="16.605" height="107.537"/>
</g>
<path style="fill:#475B70;" d="M96.989,265.9c-10.283,0-18.698,8.413-18.698,18.698v62.977h154.785v-81.673L96.989,265.9z"/>
<circle style="fill:silver;" cx="360.692" cy="347.572" r="151.308"/>
<path style="fill:#ADD9FF;" d="M360.692,238.917c59.337,0,108.5,66.543,115.983,123.876
	c-7.484,57.333-56.647,101.747-115.983,101.747c-59.326,0-108.489-44.414-115.972-101.747
	C252.203,305.461,301.366,238.917,360.692,238.917z"/>
<path style="fill:#94C8EF;" d="M477.66,347.572c0,5.159-0.332,10.24-0.985,15.222c-7.484-57.333-56.647-101.736-115.983-101.736
	c-59.326,0-108.489,44.403-115.972,101.736c-0.653-4.982-0.985-10.063-0.985-15.222c0-64.495,52.473-116.957,116.957-116.957
	C425.187,230.615,477.66,283.077,477.66,347.572z"/>
<path style="fill:#FFFFFF;" d="M360.696,472.838c-69.072,0-125.265-56.193-125.265-125.263S291.624,222.31,360.696,222.31
	c69.071,0,125.263,56.193,125.263,125.265C485.961,416.645,429.767,472.838,360.696,472.838z M360.696,238.915
	c-59.915,0-108.659,48.744-108.659,108.659c0,59.915,48.745,108.658,108.659,108.658s108.658-48.743,108.658-108.658
	C469.355,287.66,420.611,238.915,360.696,238.915z"/>
<circle style="fill:silver;" cx="96.677" cy="452.175" r="46.705"/>
<path style="fill:#4693BD;" d="M96.679,468.781c-9.156,0-16.605-7.449-16.605-16.605s7.449-16.605,16.605-16.605
	s16.605,7.449,16.605,16.605C113.285,461.331,105.836,468.781,96.679,468.781z"/>
<polygon style="fill:#FFFFFF;" points="449.271,270.741 437.529,258.999 360.696,335.832 283.864,258.999 272.122,270.741 
	348.954,347.574 272.122,424.408 283.864,436.149 360.696,359.317 437.529,436.149 449.271,424.408 372.438,347.574 "/>
<path style="fill:#7AB6DE;" d="M360.696,394.278c-25.752,0-46.703-20.95-46.703-46.703c0-25.753,20.952-46.703,46.703-46.703
	s46.703,20.951,46.703,46.703C407.399,373.327,386.448,394.278,360.696,394.278z"/>
<g>
</g>
<g>
</g>
<g>
</g>
<g>
</g>
<g>
</g>
<g>
</g>
<g>
</g>
<g>
</g>
<g>
</g>
<g>
</g>
<g>
</g>
<g>
</g>
<g>
</g>
<g>
</g>
<g>
</g>
</svg>
