<?xml version="1.0" encoding="iso-8859-1"?>
<!-- Generator: Adobe Illustrator 19.0.0, SVG Export Plug-In . SVG Version: 6.00 Build 0)  -->
<svg version="1.1" id="Layer_1" xmlns="http://www.w3.org/2000/svg" xmlns:xlink="http://www.w3.org/1999/xlink" x="0px" y="0px"
	 viewBox="24 24 464 464" style="enable-background:new 0 0 512 512; background: rgba(0,0,0,0.1);" xml:space="preserve">
<rect x="407.45" y="253.133" style="fill:#526677;" width="7.985" height="155.11"/>
<path style="fill:#FFFFFF;" d="M415.421,412.89c0,0.594-0.238,1.196-0.694,1.649c-0.456,0.456-1.047,0.684-1.644,0.684h-11.3
	c-0.594,0-1.196-0.228-1.651-0.684c-0.448-0.453-0.676-1.052-0.676-1.649v-4.652h15.959v4.652H415.421z"/>
<rect x="399.462" y="253.133" style="fill:#2B4457;" width="7.974" height="155.11"/>
<rect x="407.45" y="397.414" style="fill:#FF6D3B;" width="7.985" height="2.442"/>
<rect x="399.462" y="397.414" style="fill:#F15424;" width="7.974" height="2.435"/>
<polygon style="fill:#FFFFFF;" points="407.437,217.231 407.437,253.13 415.421,253.13 "/>
<polygon style="fill:#D9D8D7;" points="407.437,217.231 407.437,253.13 399.462,253.13 "/>
<polygon style="fill:#2B4457;" points="407.437,228.662 407.437,217.231 404.9,228.662 "/>
<polygon style="fill:#526677;" points="409.981,228.662 407.437,217.231 407.437,228.662 "/>
<path style="fill:#D9D8D7;" d="M410.716,383.286l-0.01,1.48h-6.528v-1.48l2.739,0.008v-2.424h-2.739v-1.49h6.538v1.49h-2.511v2.417
	H410.716z M406.088,390.902c-0.591,0.008-1.057-0.266-1.382-0.689c-0.381-0.468-0.591-1.262-0.591-2.56
	c0-0.722,0.049-1.265,0.097-1.603h6.415c0.079,0.394,0.138,1.172,0.138,1.912c0,0.906-0.079,1.454-0.374,1.93
	c-0.238,0.461-0.686,0.788-1.27,0.788s-1.129-0.34-1.405-1.08h-0.018C407.496,390.354,406.932,390.909,406.088,390.902z
	 M408.12,387.525v0.481c0,0.776,0.325,1.195,0.804,1.195c0.494,0,0.758-0.381,0.758-1.052c0-0.317-0.018-0.499-0.044-0.622h-1.518
	V387.525z M406.144,389.345c0.658,0.01,0.927-0.586,0.927-1.326v-0.494h-1.838c-0.026,0.138-0.026,0.32-0.026,0.571
	C405.21,388.767,405.463,389.345,406.144,389.345z"/>
<path style="fill:#FFFFFF;" d="M410.706,384.765h-3.267v-5.394l3.277,0.008v1.49h-2.511v2.417h2.511L410.706,384.765z
	 M410.624,386.053c0.079,0.394,0.138,1.172,0.138,1.912c0,0.906-0.079,1.454-0.374,1.93c-0.238,0.461-0.686,0.788-1.27,0.788
	c-0.584,0-1.129-0.34-1.405-1.08h-0.018c-0.041,0.174-0.177,0.284-0.261,0.43v-3.981H410.624z M409.682,388.147
	c0-0.317-0.018-0.499-0.044-0.622h-1.521v0.481c0,0.776,0.325,1.195,0.804,1.195C409.421,389.199,409.682,388.818,409.682,388.147z"
	/>
<path style="fill:#2B4457;" d="M154.929,108.362c-4.081,0-7.419,3.338-7.419,7.419v292.017c0,4.086,3.338,7.421,7.419,7.421h202.143
	c4.081,0,7.419-3.338,7.419-7.421V115.781c0-4.081-3.341-7.419-7.419-7.419C357.071,108.362,154.929,108.362,154.929,108.362z"/>
<rect x="162.33" y="129.331" style="fill:#FFFFFF;" width="187.315" height="264.934"/>
<rect x="186.163" y="304.23" style="fill:#FF6D3B;" width="66.207" height="20.027"/>
<rect x="259.635" y="304.23" style="fill:#CCCBCA;" width="66.202" height="20.027"/>
<rect x="186.163" y="337.28" style="fill:#526677;" width="139.648" height="4.152"/>
<g>
	<rect x="186.163" y="347.648" style="fill:#CCCBCA;" width="139.648" height="4.145"/>
	<rect x="186.163" y="358.016" style="fill:#CCCBCA;" width="69.837" height="4.15"/>
	<rect x="223.488" y="176.947" style="fill:#CCCBCA;" width="101.819" height="4.593"/>
	<rect x="223.488" y="207.642" style="fill:#CCCBCA;" width="101.819" height="4.598"/>
	<rect x="223.488" y="238.336" style="fill:#CCCBCA;" width="101.819" height="4.593"/>
	<rect x="223.488" y="269.005" style="fill:#CCCBCA;" width="101.819" height="4.598"/>
	<path style="fill:#CCCBCA;" d="M199.066,191.621c-6.822,0-12.367-5.545-12.367-12.365c0-6.815,5.545-12.367,12.367-12.367
		c6.812,0,12.365,5.553,12.365,12.367C211.43,186.079,205.878,191.621,199.066,191.621z M199.066,169.364
		c-5.46,0-9.894,4.439-9.894,9.892c0,5.458,4.434,9.894,9.894,9.894c5.45,0,9.889-4.434,9.889-9.894
		C208.957,173.806,204.518,169.364,199.066,169.364z"/>
	<path style="fill:#CCCBCA;" d="M199.066,222.308c-6.822,0-12.367-5.545-12.367-12.367c0-6.817,5.545-12.365,12.367-12.365
		c6.812,0,12.365,5.548,12.365,12.365C211.43,216.763,205.878,222.308,199.066,222.308z M199.066,200.054
		c-5.46,0-9.894,4.439-9.894,9.889c0,5.45,4.434,9.894,9.894,9.894c5.45,0,9.889-4.444,9.889-9.894
		C208.955,204.493,204.518,200.054,199.066,200.054z"/>
	<path style="fill:#CCCBCA;" d="M199.066,253c-6.822,0-12.367-5.558-12.367-12.367c0-6.822,5.545-12.365,12.367-12.365
		c6.812,0,12.365,5.545,12.365,12.365C211.43,247.442,205.878,253,199.066,253z M199.066,230.74c-5.46,0-9.894,4.434-9.894,9.894
		c0,5.45,4.434,9.892,9.894,9.892c5.45,0,9.889-4.439,9.889-9.892C208.957,235.174,204.518,230.74,199.066,230.74z"/>
	<path style="fill:#CCCBCA;" d="M199.066,283.681c-6.822,0-12.367-5.545-12.367-12.367c0-6.82,5.545-12.365,12.367-12.365
		c6.812,0,12.365,5.545,12.365,12.365C211.43,278.134,205.878,283.681,199.066,283.681z M199.066,261.419
		c-5.46,0-9.894,4.442-9.894,9.892c0,5.46,4.434,9.894,9.894,9.894c5.45,0,9.889-4.434,9.889-9.894
		C208.957,265.864,204.518,261.419,199.066,261.419z"/>
</g>
<polygon style="fill:#FF6D3B;" points="191.229,207.8 193.349,205.686 199.25,211.584 211.366,199.475 213.489,201.59 
	199.25,215.821 "/>
<path style="fill:#D9D8D7;" d="M272.046,112.845c0-8.865-7.178-16.064-16.044-16.064c-8.87,0-16.049,7.199-16.049,16.064h-20.319
	v32.963h72.724v-32.963H272.046z M256,107.395c3.003,0,5.463,2.447,5.463,5.45c0,3.008-2.46,5.448-5.463,5.448
	c-3.026,0-5.468-2.44-5.468-5.448C250.534,109.842,252.977,107.395,256,107.395z"/>
<path style="fill:#CCCBCA;" d="M272.046,112.845c0-8.865-7.178-16.064-16.044-16.064c-8.87,0-16.049,7.199-16.049,16.064h-20.319
	v16.486h72.724v-16.486H272.046z M256,107.395c3.003,0,5.463,2.447,5.463,5.45c0,3.008-2.46,5.448-5.463,5.448
	c-3.026,0-5.468-2.44-5.468-5.448C250.534,109.842,252.977,107.395,256,107.395z"/>
<rect x="219.648" y="125.901" style="fill:#FFFFFF;" width="72.724" height="3.438"/>
<rect x="219.648" y="129.331" style="fill:#CCCBCA;" width="72.724" height="3.441"/>
<g>
</g>
<g>
</g>
<g>
</g>
<g>
</g>
<g>
</g>
<g>
</g>
<g>
</g>
<g>
</g>
<g>
</g>
<g>
</g>
<g>
</g>
<g>
</g>
<g>
</g>
<g>
</g>
<g>
</g>
</svg>
